<?xml version="1.0" encoding="UTF-8"?>
<svg version="1.1" xmlns="http://www.w3.org/2000/svg" width="500" height="500">
<path d="M0 0 C165 0 330 0 500 0 C500 165 500 330 500 500 C335 500 170 500 0 500 C0 335 0 170 0 0 Z M280 26 C281 29 281 29 281 29 Z M281 30 C281 32.31 281 34.62 281 37 C281.33 37 281.66 37 282 37 C282 34.69 282 32.38 282 30 C281.67 30 281.34 30 281 30 Z M239 31 C240 33 240 33 240 33 Z M265 34 C265 36.64 265 39.28 265 42 C265.33 42 265.66 42 266 42 C266 39.36 266 36.72 266 34 C265.67 34 265.34 34 265 34 Z M190 37 C190 37.33 190 37.66 190 38 C191.98 38 193.96 38 196 38 C196 37.67 196 37.34 196 37 C194.02 37 192.04 37 190 37 Z M235 39 C236 41 236 41 236 41 Z M199 40 C200 42 200 42 200 42 Z M280 40 C281 43 281 43 281 43 Z M265 43 C266 47 266 47 266 47 Z M300 43 C304 44 304 44 304 44 Z M309 43 C313 44 313 44 313 44 Z M233 44 C234 47 234 47 234 47 Z M279 44 C280 46 280 46 280 46 Z M199 45 C200 47 200 47 200 47 Z M250 45 C251 47 251 47 251 47 Z M177 46 C178 48 178 48 178 48 Z M232 48 C233 50 233 50 233 50 Z M249 48 C250 50 250 50 250 50 Z M291 48 C292 50 292 50 292 50 Z M175 50 C176 52 176 52 176 52 Z M290 50 C291 52 291 52 291 52 Z M174 52 C175 55 175 55 175 55 Z M367 52 C368 54 368 54 368 54 Z M251 53 C251 53.33 251 53.66 251 54 C255.62 54 260.24 54 265 54 C265 53.67 265 53.34 265 53 C260.38 53 255.76 53 251 53 Z M275 53 C279 54 279 54 279 54 Z M192 54 C193 56 193 56 193 56 Z M326 54 C327 56 327 56 327 56 Z M217 55 C221 56 221 56 221 56 Z M290 55 C289.34 55.66 288.68 56.32 288 57 C288.99 57 289.98 57 291 57 C290.67 56.34 290.34 55.68 290 55 Z M204 57 C204 57.33 204 57.66 204 58 C205.65 58 207.3 58 209 58 C209 57.67 209 57.34 209 57 C207.35 57 205.7 57 204 57 Z M303 57 C303 57.33 303 57.66 303 58 C304.65 58 306.3 58 308 58 C308 57.67 308 57.34 308 57 C306.35 57 304.7 57 303 57 Z M327 57 C328 60 328 60 328 60 Z M367 57 C368 59 368 59 368 59 Z M174 62 C175 64 175 64 175 64 Z M313 62 C313 62.66 313 63.32 313 64 C312.01 64.495 312.01 64.495 311 65 C311.99 65 312.98 65 314 65 C313.67 64.01 313.34 63.02 313 62 Z M148 63 C149 65 149 65 149 65 Z M223 64 C227 65 227 65 227 65 Z M175 65 C176 67 176 67 176 67 Z M247 65 C247 66.65 247 68.3 247 70 C247.33 70 247.66 70 248 70 C248 68.35 248 66.7 248 65 C247.67 65 247.34 65 247 65 Z M148 67 C149 69 149 69 149 69 Z M171 67 C171.99 67.495 171.99 67.495 173 68 C173.33 68.66 173.66 69.32 174 70 C174.33 69.01 174.66 68.02 175 67 C173.68 67 172.36 67 171 67 Z M290 67 C290 67.66 290 68.32 290 69 C290.66 68.67 291.32 68.34 292 68 C291.34 67.67 290.68 67.34 290 67 Z M385 68 C385 68.33 385 68.66 385 69 C386.98 69 388.96 69 391 69 C391 68.67 391 68.34 391 68 C389.02 68 387.04 68 385 68 Z M231 69 C232 72 232 72 232 72 Z M207 70 C208 72 208 72 208 72 Z M278 70 C279 73 279 73 279 73 Z M248 71 C249 73 249 73 249 73 Z M331 71 C331.33 71.99 331.66 72.98 332 74 C332.66 73.67 333.32 73.34 334 73 C333.67 72.34 333.34 71.68 333 71 C332.34 71 331.68 71 331 71 Z M393 71 C393 72.65 393 74.3 393 76 C393.33 76 393.66 76 394 76 C394 74.35 394 72.7 394 71 C393.67 71 393.34 71 393 71 Z M208 72 C209 74 209 74 209 74 Z M259 72 C260 74 260 74 260 74 Z M128 73 C128 76.3 128 79.6 128 83 C128.33 83 128.66 83 129 83 C129 79.7 129 76.4 129 73 C128.67 73 128.34 73 128 73 Z M232 74 C233 76 233 76 233 76 Z M153 75 C154 77 154 77 154 77 Z M209 75 C209 77.97 209 80.94 209 84 C209.33 84 209.66 84 210 84 C210 81.03 210 78.06 210 75 C209.67 75 209.34 75 209 75 Z M175 76 C179 77 179 77 179 77 Z M276 76 C277 78 277 78 277 78 Z M279 76 C280 78 280 78 280 78 Z M392 76 C393 78 393 78 393 78 Z M143 77 C144 79 144 79 144 79 Z M233 77 C234 79 234 79 234 79 Z M275 78 C276 80 276 80 276 80 Z M303 78 C303 78.33 303 78.66 303 79 C304.65 79 306.3 79 308 79 C308 78.67 308 78.34 308 78 C306.35 78 304.7 78 303 78 Z M391 78 C392 80 392 80 392 80 Z M278 79 C279 81 279 81 279 81 Z M191 80 C192 82 192 82 192 82 Z M234 80 C235 82 235 82 235 82 Z M274 80 C275 82 275 82 275 82 Z M235 82 C236 84 236 84 236 84 Z M325 82 C326 84 326 84 326 84 Z M352 82 C353 85 353 85 353 85 Z M178 84 C179 86 179 86 179 86 Z M236 84 C237 86 237 86 237 86 Z M278 84 C279 88 279 88 279 88 Z M307 84 C306.67 84.66 306.34 85.32 306 86 C306.66 86 307.32 86 308 86 C307.67 85.34 307.34 84.68 307 84 Z M129 85 C130 87 130 87 130 87 Z M324 85 C325 88 325 88 325 88 Z M208 86 C209 88 209 88 209 88 Z M361 86 C362 88 362 88 362 88 Z M238 87 C239 89 239 89 239 89 Z M279 88 C280 90 280 90 280 90 Z M323 89 C324 91 324 91 324 91 Z M180 90 C181 93 181 93 181 93 Z M327 91 C328 93 328 93 328 93 Z M322 92 C323 94 323 94 323 94 Z M150 93 C151 95 151 95 151 95 Z M326 93 C327 95 327 95 327 95 Z M127 94 C128.485 94.99 128.485 94.99 130 96 C130 95.34 130 94.68 130 94 C129.01 94 128.02 94 127 94 Z M164 94 C165 98 165 98 165 98 Z M97 95 C98 97 98 97 98 97 Z M321 95 C322 97 322 97 322 97 Z M228 96 C227.67 96.99 227.34 97.98 227 99 C227.66 99 228.32 99 229 99 C228.67 98.01 228.34 97.02 228 96 Z M234 96 C234 96.33 234 96.66 234 97 C236.64 97 239.28 97 242 97 C242 96.67 242 96.34 242 96 C239.36 96 236.72 96 234 96 Z M344 96 C345 98 345 98 345 98 Z M96 97 C97 99 97 99 97 99 Z M250 97 C250 97.33 250 97.66 250 98 C253.3 98 256.6 98 260 98 C260 97.67 260 97.34 260 97 C256.7 97 253.4 97 250 97 Z M320 97 C321 99 321 99 321 99 Z M324 98 C325 100 325 100 325 100 Z M95 99 C96 102 96 102 96 102 Z M181 99 C182 101 182 101 182 101 Z M221 99 C225 100 225 100 225 100 Z M291 99 C291 99.33 291 99.66 291 100 C293.64 100 296.28 100 299 100 C299 99.67 299 99.34 299 99 C296.36 99 293.72 99 291 99 Z M303 100 C304 102 304 102 304 102 Z M342 100 C343 102 343 102 343 102 Z M323 101 C324 103 324 103 324 103 Z M180 102 C181 104 181 104 181 104 Z M341 102 C342 104 342 104 342 104 Z M391 102 C391 102.33 391 102.66 391 103 C394.3 103 397.6 103 401 103 C401 102.67 401 102.34 401 102 C397.7 102 394.4 102 391 102 Z M317 103 C318 105 318 105 318 105 Z M376 103 C376.66 103.66 377.32 104.32 378 105 C378 104.34 378 103.68 378 103 C377.34 103 376.68 103 376 103 Z M322 104 C323 107 323 107 323 107 Z M179 105 C180 107 180 107 180 107 Z M239 106 C243 107 243 107 243 107 Z M251 107 C251 107.33 251 107.66 251 108 C253.97 108 256.94 108 260 108 C260 107.67 260 107.34 260 107 C257.03 107 254.06 107 251 107 Z M111 108 C111 108.66 111 109.32 111 110 C111.66 109.67 112.32 109.34 113 109 C112.34 108.67 111.68 108.34 111 108 Z M227 108 C231 109 231 109 231 109 Z M269 108 C269 108.33 269 108.66 269 109 C270.65 109 272.3 109 274 109 C274 108.67 274 108.34 274 108 C272.35 108 270.7 108 269 108 Z M309 108 C313 109 313 109 313 109 Z M345 108 C346 110 346 110 346 110 Z M221 109 C225 110 225 110 225 110 Z M344 110 C345 112 345 112 345 112 Z M95 111 C96 114 96 114 96 114 Z M370 111 C370.33 111.66 370.66 112.32 371 113 C371.33 112.34 371.66 111.68 372 111 C371.34 111 370.68 111 370 111 Z M343 112 C344 114 344 114 344 114 Z M318 113 C319 116 319 116 319 116 Z M322 113 C323 115 323 115 323 115 Z M414 113 C415 115 415 115 415 115 Z M342 114 C343 116 343 116 343 116 Z M362 114 C363 116 363 116 363 116 Z M96 115 C97 117 97 117 97 117 Z M341 116 C342 118 342 118 342 118 Z M415 116 C416 118 416 118 416 118 Z M133 117 C133 119.64 133 122.28 133 125 C133.33 125 133.66 125 134 125 C134 122.36 134 119.72 134 117 C133.67 117 133.34 117 133 117 Z M326 117 C330 118 330 118 330 118 Z M365 117 C366 119 366 119 366 119 Z M83 118 C83.66 118.66 84.32 119.32 85 120 C85 119.34 85 118.68 85 118 C84.34 118 83.68 118 83 118 Z M146 118 C147 120 147 120 147 120 Z M155 118 C155 118.33 155 118.66 155 119 C157.97 119 160.94 119 164 119 C164 118.67 164 118.34 164 118 C161.03 118 158.06 118 155 118 Z M359 118 C360 120 360 120 360 120 Z M391 118 C392 120 392 120 392 120 Z M340 119 C341 122 341 122 341 122 Z M401 119 C402 122 402 122 402 122 Z M85 120 C86 122 86 122 86 122 Z M363 120 C364 122 364 122 364 122 Z M147 121 C147 123.64 147 126.28 147 129 C147.33 129 147.66 129 148 129 C148 126.36 148 123.72 148 121 C147.67 121 147.34 121 147 121 Z M361 124 C362 126 362 126 362 126 Z M415 124 C416 126 416 126 416 126 Z M97 125 C97 125.66 97 126.32 97 127 C97.66 126.67 98.32 126.34 99 126 C98.34 125.67 97.68 125.34 97 125 Z M85 126 C85 127.98 85 129.96 85 132 C85.33 132 85.66 132 86 132 C86 130.02 86 128.04 86 126 C85.67 126 85.34 126 85 126 Z M132 126 C133 128 133 128 133 128 Z M340 126 C341 128 341 128 341 128 Z M414 126 C415 128 415 128 415 128 Z M360 127 C361 129 361 129 361 129 Z M69 128 C70 132 70 132 70 132 Z M151 130 C152 134 152 134 152 134 Z M359 130 C359 133.3 359 136.6 359 140 C359.33 140 359.66 140 360 140 C360 136.7 360 133.4 360 130 C359.67 130 359.34 130 359 130 Z M93 131 C94 133 94 133 94 133 Z M146 131 C147 133 147 133 147 133 Z M342 132 C346 133 346 133 346 133 Z M375 132 C376 134 376 134 376 134 Z M86 133 C87 135 87 135 87 135 Z M91 134 C92 136 92 136 92 136 Z M109 135 C109 135.66 109 136.32 109 137 C109.66 136.67 110.32 136.34 111 136 C110.34 135.67 109.68 135.34 109 135 Z M69 136 C70 139 70 139 70 139 Z M112 138 C112.99 138.99 113.98 139.98 115 141 C114.67 140.01 114.34 139.02 114 138 C113.34 138 112.68 138 112 138 Z M407 140 C406.67 140.66 406.34 141.32 406 142 C406.66 142 407.32 142 408 142 C407.67 141.34 407.34 140.68 407 140 Z M429 142 C430 144 430 144 430 144 Z M117 144 C118 146 118 146 118 146 Z M125 144 C125 144.33 125 144.66 125 145 C127.97 145 130.94 145 134 145 C134 144.67 134 144.34 134 144 C131.03 144 128.06 144 125 144 Z M118 146 C119 148 119 148 119 148 Z M247 147 C247 147.33 247 147.66 247 148 C253.6 148 260.2 148 267 148 C267 147.67 267 147.34 267 147 C260.4 147 253.8 147 247 147 Z M393 147 C392.67 148.65 392.34 150.3 392 152 C392.66 152 393.32 152 394 152 C394 150.35 394 148.7 394 147 C393.67 147 393.34 147 393 147 Z M119 149 C120 152 120 152 120 152 Z M51 150 C51 151.98 51 153.96 51 156 C51.33 156 51.66 156 52 156 C52 154.02 52 152.04 52 150 C51.67 150 51.34 150 51 150 Z M41 151 C41 152.98 41 154.96 41 157 C41.33 157 41.66 157 42 157 C42 155.02 42 153.04 42 151 C41.67 151 41.34 151 41 151 Z M93 152 C93 152.33 93 152.66 93 153 C95.31 153 97.62 153 100 153 C100 152.67 100 152.34 100 152 C97.69 152 95.38 152 93 152 Z M79 153 C80 155 80 155 80 155 Z M90 154 C91 156 91 156 91 156 Z M120 155 C121 159 121 159 121 159 Z M129 155 C130 158 130 158 130 158 Z M380 155 C381.98 155.99 381.98 155.99 384 157 C384.66 156.34 385.32 155.68 386 155 C384.02 155 382.04 155 380 155 Z M42 157 C43 159 43 159 43 159 Z M88 157 C89 159 89 159 89 159 Z M56 159 C57 162 57 162 57 162 Z M103 160 C104 163 104 163 104 163 Z M436 160 C437 162 437 162 437 162 Z M138 161 C139 163 139 163 139 163 Z M370 161 C371 163 371 163 371 163 Z M437 162 C438 164 438 164 438 164 Z M119 163 C120 165 120 165 120 165 Z M102 164 C103 168 103 168 103 168 Z M136 164 C137 166 137 166 137 166 Z M438 165 C439 167 439 167 439 167 Z M118 166 C119 168 119 168 119 168 Z M374 167 C375 169 375 169 375 169 Z M411 168 C412 170 412 170 412 170 Z M102 169 C102 172 102 172 102 172 Z M363 170 C364 172 364 172 364 172 Z M364 172 C365 174 365 174 365 174 Z M413 172 C414 174 414 174 414 174 Z M438 172 C439 174 439 174 439 174 Z M243 173 C244 176 244 176 244 176 Z M365 174 C366 176 366 176 366 176 Z M376 174 C377 176 377 176 377 176 Z M414 174 C415 176 415 176 415 176 Z M107 175 C107.99 176.485 107.99 176.485 109 178 C109 177.34 109 176.68 109 176 C109.66 175.67 110.32 175.34 111 175 C109.68 175 108.36 175 107 175 Z M117 175 C118 177 118 177 118 177 Z M129 175 C130 177 130 177 130 177 Z M69 176 C69 176.66 69 177.32 69 178 C68.01 178.495 68.01 178.495 67 179 C68.32 178.67 69.64 178.34 71 178 C70.34 177.34 69.68 176.68 69 176 Z M366 176 C367 178 367 178 367 178 Z M415 176 C416 178 416 178 416 178 Z M49 177 C49 177.33 49 177.66 49 178 C51.31 178 53.62 178 56 178 C56 177.67 56 177.34 56 177 C53.69 177 51.38 177 49 177 Z M116 177 C117 180 117 180 117 180 Z M109 178 C110 180 110 180 110 180 Z M367 178 C368 180 368 180 368 180 Z M378 178 C379 180 379 180 379 180 Z M416 178 C417 180 417 180 417 180 Z M78 180 C77.67 180.66 77.34 181.32 77 182 C77.66 182 78.32 182 79 182 C78.67 181.34 78.34 180.68 78 180 Z M379 180 C380 182 380 182 380 182 Z M427 180 C426.67 180.66 426.34 181.32 426 182 C426.99 181.67 427.98 181.34 429 181 C428.34 180.67 427.68 180.34 427 180 Z M76 182 C77 184 77 184 77 184 Z M369 182 C370 184 370 184 370 184 Z M380 182 C381 184 381 184 381 184 Z M429 182 C429 182.33 429 182.66 429 183 C432.63 183 436.26 183 440 183 C440 182.67 440 182.34 440 182 C436.37 182 432.74 182 429 182 Z M125 183 C126 185 126 185 126 185 Z M335 183 C336 185 336 185 336 185 Z M418 183 C419 185 419 185 419 185 Z M381 184 C382 186 382 186 382 186 Z M113 185 C114 187 114 187 114 187 Z M124 185 C125 187 125 187 125 187 Z M382 186 C383 188 383 188 383 188 Z M448 187 C448 188.65 448 190.3 448 192 C448.33 192 448.66 192 449 192 C449 190.35 449 188.7 449 187 C448.67 187 448.34 187 448 187 Z M187 188 C188 190 188 190 188 190 Z M335 188 C336 190 336 190 336 190 Z M383 188 C384 190 384 190 384 190 Z M109 189 C110 193 110 193 110 193 Z M169 191 C168.30003906 191.70253906 167.60007813 192.40507812 166.87890625 193.12890625 C164.94174554 195.06743163 162.98994198 196.98959334 161.02734375 198.90234375 C159.99734951 199.91401534 158.96740207 200.92573457 157.9375 201.9375 C157.42123047 202.43701172 156.90496094 202.93652344 156.37304688 203.45117188 C153.05245248 206.72946571 150.46432506 210.03462322 148 214 C148.33 214.66 148.66 215.32 149 216 C149.44730469 215.40832031 149.89460937 214.81664062 150.35546875 214.20703125 C158.33629301 203.77580466 158.33629301 203.77580466 164 200 C164 199.34 164 198.68 164 198 C164.66 198 165.32 198 166 198 C166 197.34 166 196.68 166 196 C167.32 195.34 168.64 194.68 170 194 C169.67 193.01 169.34 192.02 169 191 Z M121 192 C122 194 122 194 122 194 Z M26 194 C27 196 27 196 27 196 Z M108 194 C109 197 109 197 109 197 Z M120 194 C121 196 121 196 121 196 Z M89 197 C90 199 90 199 90 199 Z M25 198 C25 199.65 25 201.3 25 203 C25.33 203 25.66 203 26 203 C26 201.35 26 199.7 26 198 C25.67 198 25.34 198 25 198 Z M376 197 C375.34 197.66 374.68 198.32 374 199 C374.99 199 375.98 199 377 199 C376.67 198.34 376.34 197.68 376 197 Z M107 199 C108 203 108 203 108 203 Z M432 199 C433 201 433 201 433 201 Z M62 200 C63 203 63 203 63 203 Z M397 200 C397 202.64 397 205.28 397 208 C397.33 208 397.66 208 398 208 C398 205.36 398 202.72 398 200 C397.67 200 397.34 200 397 200 Z M117 201 C118 203 118 203 118 203 Z M92 202 C93 204 93 204 93 204 Z M45 203 C45 204.98 45 206.96 45 209 C45.33 209 45.66 209 46 209 C46 207.02 46 205.04 46 203 C45.67 203 45.34 203 45 203 Z M423 203 C424 207 424 207 424 207 Z M433 203 C434 206 434 206 434 206 Z M93 204 C94 206 94 206 94 206 Z M61 205 C62 208 62 208 62 208 Z M106 205 C107 208 107 208 107 208 Z M116 205 C117 208 117 208 117 208 Z M367 205 C368 207 368 207 368 207 Z M380 205 C380 206.65 380 208.3 380 210 C380.33 210 380.66 210 381 210 C381 208.35 381 206.7 381 205 C380.67 205 380.34 205 380 205 Z M417 205 C418 208 418 208 418 208 Z M71 206 C72 209 72 209 72 209 Z M25 208 C26 212 26 212 26 212 Z M366 208 C367 211 367 211 367 211 Z M434 208 C435 212 435 212 435 212 Z M60 209 C61 213 61 213 61 213 Z M95 209 C96 211 96 211 96 211 Z M398 209 C399 211 399 211 399 211 Z M418 209 C419 211 419 211 419 211 Z M424 209 C425 212 425 212 425 212 Z M105 210 C106 213 106 213 106 213 Z M70 211 C71 214 71 214 71 214 Z M77 211 C78 213 78 213 78 213 Z M115 211 C116 213 116 213 116 213 Z M437 211 C437 211.33 437 211.66 437 212 C438.65 212 440.3 212 442 212 C442 211.67 442 211.34 442 211 C440.35 211 438.7 211 437 211 Z M317 214 C317 214.66 317 215.32 317 216 C317.76183594 215.855625 318.52367187 215.71125 319.30859375 215.5625 C328.63873226 213.88517173 335.87306904 213.19171355 345 216 C347.79244045 216.16928543 347.79244045 216.16928543 350 216 C340.39009332 209.59339554 327.64359036 211.36265018 317 214 Z M96 213 C97 215 97 215 97 215 Z M26 214 C27 216 27 216 27 216 Z M380 214 C381 216 381 216 381 216 Z M452 214 C453 216 453 216 453 216 Z M104 215 C105 217 105 217 105 217 Z M114 215 C115 218 115 218 115 218 Z M72 216 C72 216.33 72 216.66 72 217 C73.98 217 75.96 217 78 217 C78 216.67 78 216.34 78 216 C76.02 216 74.04 216 72 216 Z M147 216 C147 219 147 219 147 219 Z M350 216 C352.85211349 219.01056424 355.2436708 221.25599001 359 223 C359.33 223.66 359.66 224.32 360 225 C358.35 225.66 356.7 226.32 355 227 C355.66 227.33 356.32 227.66 357 228 C359.03144641 227.06553465 361.03533587 226.06775224 363 225 C359.85621294 220.47294663 356.83991063 218.41995531 352 216 C351.34 216 350.68 216 350 216 Z M27 217 C28 219 28 219 28 219 Z M97 217 C97 220.96 97 224.92 97 229 C97.33 229 97.66 229 98 229 C98 225.04 98 221.08 98 217 C97.67 217 97.34 217 97 217 Z M366 218 C367 221 367 221 367 221 Z M28 219 C29 221 29 221 29 221 Z M145 219 C144.67 220.32 144.34 221.64 144 223 C144.66 222.67 145.32 222.34 146 222 C145.67 221.01 145.34 220.02 145 219 Z M452 219 C453 221 453 221 453 221 Z M103 220 C104 223 104 223 104 223 Z M388 220 C392 221 392 221 392 221 Z M404 220 C408 221 408 221 408 221 Z M113 221 C114 223 114 223 114 223 Z M143 223 C135.90090949 239.79937449 134.17983699 255.37874834 139 273 C139.66 272.34 140.32 271.68 141 271 C140.67515625 270.03578125 140.3503125 269.0715625 140.015625 268.078125 C138.74839758 263.62267877 138.69691793 259.3566004 138.75 254.75 C138.75604248 253.91243164 138.76208496 253.07486328 138.76831055 252.21191406 C138.89134728 244.50161216 139.44725246 237.15239942 142.6875 230.0625 C144.08734425 226.79619675 144.02659786 226.19003227 143 223 Z M102 225 C103 228 103 228 103 228 Z M112 225 C113 229 113 229 113 229 Z M352 228 C350.32419948 228.97207035 350.32419948 228.97207035 348.8125 230.4375 C347.884375 231.283125 346.95625 232.12875 346 233 C346.33 233.99 346.66 234.98 347 236 C349.64 233.69 352.28 231.38 355 229 C354.01 228.67 353.02 228.34 352 228 Z M438 229 C438 230.65 438 232.3 438 234 C437.01 234.495 437.01 234.495 436 235 C436.99 235 437.98 235 439 235 C439 233.02 439 231.04 439 229 C438.67 229 438.34 229 438 229 Z M101 230 C102 233 102 233 102 233 Z M56 231 C57 234 57 234 57 234 Z M111 231 C112 233 112 233 112 233 Z M72 234 C76 235 76 235 76 235 Z M415 234 C419 235 419 235 419 235 Z M62 235 C66 236 66 236 66 236 Z M79 235 C79 235.33 79 235.66 79 236 C80.98 236 82.96 236 85 236 C85 235.67 85 235.34 85 235 C83.02 235 81.04 235 79 235 Z M88 235 C92 236 92 236 92 236 Z M100 235 C101 237 101 237 101 237 Z M110 235 C111 239 111 239 111 239 Z M386 235 C390 236 390 236 390 236 Z M408 235 C408 235.33 408 235.66 408 236 C409.65 236 411.3 236 413 236 C413 235.67 413 235.34 413 235 C411.35 235 409.7 235 408 235 Z M429 235 C433 236 433 236 433 236 Z M344 236 C339.75417623 241.91190651 338.67736172 248.98935795 339.25390625 256.15625 C340.00266399 261.61599177 340.00266399 261.61599177 343 266 C342.7525 264.6078125 342.7525 264.6078125 342.5 263.1875 C341.30673474 254.50123079 341.72170082 247.15328293 345 239 C345.33 238.01 345.66 237.02 346 236 C345.34 236 344.68 236 344 236 Z M99 240 C100 243 100 243 100 243 Z M109 241 C110 244 110 244 110 244 Z M388 252 C389 255 389 255 389 255 Z M398 253 C399 256 399 256 399 256 Z M319 257 C320 259 320 259 320 259 Z M387 257 C388 260 388 260 388 260 Z M397 258 C398 261 398 261 398 261 Z M94 259 C94 259.33 94 259.66 94 260 C97.63 260 101.26 260 105 260 C105 259.67 105 259.34 105 259 C101.37 259 97.74 259 94 259 Z M84 260 C88 261 88 261 88 261 Z M406 260 C406 260.33 406 260.66 406 261 C409.96 261 413.92 261 418 261 C418 260.67 418 260.34 418 260 C414.04 260 410.08 260 406 260 Z M77 261 C81 262 81 262 81 262 Z M422 261 C426 262 426 262 426 262 Z M431 261 C432 263 432 263 432 263 Z M386 262 C387 265 387 265 387 265 Z M396 262 C397 266 397 266 397 266 Z M441 262 C441 263.32 441 264.64 441 266 C441.66 265.67 442.32 265.34 443 265 C442.34 264.01 441.68 263.02 441 262 Z M59 264 C60 267 60 267 60 267 Z M323 266 C324 268 324 268 324 268 Z M343 266 C344 268 344 268 344 268 Z M385 267 C386 270 386 270 386 270 Z M400 267 C400 270.96 400 274.92 400 279 C400.33 279 400.66 279 401 279 C401 275.04 401 271.08 401 267 C400.67 267 400.34 267 400 267 Z M344 268 C344.41317222 272.82034262 346.38019915 274.90992611 350 278 C350.66 278 351.32 278 352 278 C352.33 279.32 352.66 280.64 353 282 C354.65 281.67 356.3 281.34 358 281 C357.34 280.525625 356.68 280.05125 356 279.5625 C352.51934773 276.58944285 349.64804468 273.29659343 346.671875 269.828125 C346.12015625 269.22484375 345.5684375 268.6215625 345 268 C344.67 268 344.34 268 344 268 Z M395 268 C396 271 396 271 396 271 Z M129 270 C130 272 130 272 130 272 Z M130 272 C131 274 131 274 131 274 Z M384 272 C385 275 385 275 385 275 Z M394 272 C395 276 395 276 395 276 Z M140 273 C141 276 141 276 141 276 Z M97 274 C97 274.33 97 274.66 97 275 C99.64 275 102.28 275 105 275 C105 274.67 105 274.34 105 274 C102.36 274 99.72 274 97 274 Z M45 275 C46 277 46 277 46 277 Z M88 275 C88.33 275.66 88.66 276.32 89 277 C89.99 276.34 90.98 275.68 92 275 C90.68 275 89.36 275 88 275 Z M131 275 C132 278 132 278 132 278 Z M469 275 C470 277 470 277 470 277 Z M141 276 C141.51525603 281.28137429 143.25477117 284.57221156 146 289 C146.66 288.67 147.32 288.34 148 288 C147.58987682 285.62128554 147.29446732 284.29446732 145.5625 282.5625 C143.5940668 280.5940668 142.91390982 278.60112795 142 276 C141.67 276 141.34 276 141 276 Z M383 277 C384 280 384 280 384 280 Z M470 277 C471 279 471 279 471 279 Z M116 278 C117 280 117 280 117 280 Z M393 278 C394 281 394 281 394 281 Z M420 279 C420 279.33 420 279.66 420 280 C421.98 280 423.96 280 426 280 C426 279.67 426 279.34 426 279 C424.02 279 422.04 279 420 279 Z M45 280 C46 282 46 282 46 282 Z M117 280 C118 282 118 282 118 282 Z M471 280 C472 282 472 282 472 282 Z M358 281 C357.9071875 282.175625 357.9071875 282.175625 357.8125 283.375 C357.544375 284.24125 357.27625 285.1075 357 286 C354.4375 287.3125 354.4375 287.3125 352 288 C352 288.66 352 289.32 352 290 C351.39671875 290.13277344 350.7934375 290.26554687 350.171875 290.40234375 C348.97304688 290.66724609 348.97304688 290.66724609 347.75 290.9375 C346.96109375 291.11152344 346.1721875 291.28554688 345.359375 291.46484375 C343.91956583 291.79142298 342.48554955 292.14757972 341.06640625 292.5546875 C334.03954611 294.0689825 326.71326736 293.37761552 320 291 C318.66869885 290.65864073 317.33641852 290.32074044 316 290 C315.67 290.66 315.34 291.32 315 292 C325.31828156 296.16699832 338.02435019 296.88345801 348.609375 293.12109375 C353.35191925 290.89705747 357.90296715 288.27167778 362 285 C362.33 284.01 362.66 283.02 363 282 C361.35 281.67 359.7 281.34 358 281 Z M401 281 C402 283 402 283 402 283 Z M382 282 C383 285 383 285 383 285 Z M427 282 C428 285 428 285 428 285 Z M392 283 C393 286 393 286 393 286 Z M420 283 C421 285 421 285 421 285 Z M437 283 C438 286 438 286 438 286 Z M49 284 C49 284.33 49 284.66 49 285 C52.3 285 55.6 285 59 285 C59 284.67 59 284.34 59 284 C55.7 284 52.4 284 49 284 Z M63 284 C64 288 64 288 64 288 Z M73 284 C74 287 74 287 74 287 Z M472 284 C472 285.65 472 287.3 472 289 C472.33 289 472.66 289 473 289 C473 287.35 473 285.7 473 284 C472.67 284 472.34 284 472 284 Z M99 285 C100 287 100 287 100 287 Z M131 285 C132 288 132 288 132 288 Z M402 285 C403 287 403 287 403 287 Z M117 286 C118 290 118 290 118 290 Z M381 287 C382 290 382 290 382 290 Z M426 287 C427 289 427 289 427 289 Z M452 287 C452 288.98 452 290.96 452 293 C452.33 293 452.66 293 453 293 C453 291.02 453 289.04 453 287 C452.67 287 452.34 287 452 287 Z M80 288 C81 291 81 291 81 291 Z M100 288 C100 290.31 100 292.62 100 295 C100.33 295 100.66 295 101 295 C101 292.69 101 290.38 101 288 C100.67 288 100.34 288 100 288 Z M391 288 C392 291 392 291 392 291 Z M436 288 C437 291 437 291 437 291 Z M74 289 C75 293 75 293 75 293 Z M130 289 C131 291 131 291 131 291 Z M147 289 C147.33 289.66 147.66 290.32 148 291 C148.33 290.34 148.66 289.68 149 289 C148.34 289 147.68 289 147 289 Z M64 290 C65 293 65 293 65 293 Z M404 290 C405 292 405 292 405 292 Z M148 291 C151.35393016 298.38886137 157.15298989 304.72981381 163.45703125 309.74609375 C165.08491917 311.06901026 166.53973961 312.49588794 168 314 C166.63439027 309.53073178 164.68866887 307.76650165 161 305 C160.34 304.01 159.68 303.02 159 302 C158.34 302 157.68 302 157 302 C156.73316406 301.41734375 156.46632812 300.8346875 156.19140625 300.234375 C154.97613248 297.95523863 153.62930828 296.19537168 151.9375 294.25 C151.41027344 293.63640625 150.88304687 293.0228125 150.33984375 292.390625 C149.89769531 291.93171875 149.45554688 291.4728125 149 291 C148.67 291 148.34 291 148 291 Z M380 292 C381 295 381 295 381 295 Z M405 292 C406 294 406 294 406 294 Z M128 293 C129 295 129 295 129 295 Z M390 293 C391 296 391 296 391 296 Z M435 293 C436 296 436 296 436 296 Z M472 293 C472 294.65 472 296.3 472 298 C472.33 298 472.66 298 473 298 C473 296.35 473 294.7 473 293 C472.67 293 472.34 293 472 293 Z M99 296 C100 298 100 298 100 298 Z M121 296 C122 299 122 299 122 299 Z M318 296 C319 298 319 298 319 298 Z M378 297 C379 299 379 299 379 299 Z M408 297 C409 299 409 299 409 299 Z M98 298 C99 300 99 300 99 300 Z M389 298 C390 301 390 301 390 301 Z M471 300 C472 302 472 302 472 302 Z M123 301 C124 303 124 303 124 303 Z M388 303 C389 306 389 306 389 306 Z M49 304 C49 305.65 49 307.3 49 309 C49.33 309 49.66 309 50 309 C50 307.35 50 305.7 50 304 C49.67 304 49.34 304 49 304 Z M113 304 C114 306 114 306 114 306 Z M375 304 C376 306 376 306 376 306 Z M114 306 C115 308 115 308 115 308 Z M115 308 C116 310 116 310 116 310 Z M391 309 C391 309.33 391 309.66 391 310 C393.31 310 395.62 310 398 310 C398 309.67 398 309.34 398 309 C395.69 309 393.38 309 391 309 Z M116 310 C117 312 117 312 117 312 Z M372 311 C373 313 373 313 373 313 Z M383 311 C384 313 384 313 384 313 Z M117 312 C118 314 118 314 118 314 Z M421 312 C422 314 422 314 422 314 Z M371 313 C372 315 372 315 372 315 Z M382 313 C383 315 383 315 383 315 Z M66 316 C67.65 316 69.3 316 71 316 C71.33 315.34 71.66 314.68 72 314 C68.81509993 313.7226499 68.81509993 313.7226499 66 316 Z M80 314 C81 316 81 316 81 316 Z M118 314 C119 316 119 316 119 316 Z M419 314 C419.33 314.66 419.66 315.32 420 316 C420.33 315.34 420.66 314.68 421 314 C420.34 314 419.68 314 419 314 Z M119 316 C120 318 120 318 120 318 Z M130 316 C131 318 131 318 131 318 Z M381 316 C382 319 382 319 382 319 Z M428 317 C428.33 317.99 428.66 318.98 429 320 C429 319.34 429 318.68 429 318 C429.66 317.67 430.32 317.34 431 317 C430.01 317 429.02 317 428 317 Z M82 318 C83 320 83 320 83 320 Z M131 318 C132 320 132 320 132 320 Z M442 318 C442 318.33 442 318.66 442 319 C444.31 319 446.62 319 449 319 C449 318.67 449 318.34 449 318 C446.69 318 444.38 318 442 318 Z M334 319 C335 321 335 321 335 321 Z M83 320 C84 322 84 322 84 322 Z M121 320 C122 322 122 322 122 322 Z M132 320 C133 322 133 322 133 322 Z M389 319 C388.34 319.66 387.68 320.32 387 321 C388.32 320.67 389.64 320.34 391 320 C390.34 319.67 389.68 319.34 389 319 Z M427 320 C428 322 428 322 428 322 Z M59 321 C60 323 60 323 60 323 Z M84 322 C85 324 85 324 85 324 Z M133 322 C134 324 134 324 134 324 Z M111 323 C111 323.33 111 323.66 111 324 C112.98 324 114.96 324 117 324 C117 323.67 117 323.34 117 323 C115.02 323 113.04 323 111 323 Z M58 324 C59 327 59 327 59 327 Z M85 324 C86 326 86 326 86 326 Z M134 324 C135 326 135 326 135 326 Z M395 324 C395 326.64 395 329.28 395 332 C395.33 332 395.66 332 396 332 C396.33 329.69 396.66 327.38 397 325 C396.34 324.67 395.68 324.34 395 324 Z M120 325 C121 327 121 327 121 327 Z M123 325 C124 329 124 329 124 329 Z M334 325 C335 327 335 327 335 327 Z M376 325 C377 327 377 327 377 327 Z M86 326 C87 328 87 328 87 328 Z M75 327 C76 329 76 329 76 329 Z M121 327 C122 331 122 331 122 331 Z M87 328 C88 330 88 330 88 330 Z M374 328 C375 330 375 330 375 330 Z M379 328 C380 330 380 330 380 330 Z M59 330 C60 332 60 332 60 332 Z M88 330 C89 332 89 332 89 332 Z M360 331 C361 333 361 333 361 333 Z M378 331 C379 333 379 333 379 333 Z M60 332 C61 334 61 334 61 334 Z M394 333 C395 335 395 335 395 335 Z M61 334 C62 336 62 336 62 336 Z M410 334 C411 336 411 336 411 336 Z M449 335 C453 336 453 336 453 336 Z M377 336 C378 340 378 340 378 340 Z M440 337 C441 339 441 339 441 339 Z M455 337 C456 339 456 339 456 339 Z M132 338 C133 340 133 340 133 340 Z M145 338 C146 340 146 340 146 340 Z M368 338 C369 341 369 341 369 341 Z M112 339 C111.67 339.66 111.34 340.32 111 341 C113.97 341 116.94 341 120 341 C120 340.67 120 340.34 120 340 C117.36 339.67 114.72 339.34 112 339 Z M446 339 C447 341 447 341 447 341 Z M418 340 C419 343 419 343 419 343 Z M431 340 C431 340.33 431 340.66 431 341 C433.31 341 435.62 341 438 341 C438 340.67 438 340.34 438 340 C435.69 340 433.38 340 431 340 Z M456 340 C457 343 457 343 457 343 Z M71 341 C71.66 341.66 72.32 342.32 73 343 C73 342.34 73 341.68 73 341 C72.34 341 71.68 341 71 341 Z M446 343 C447 346 447 346 447 346 Z M103 344 C103.66 345.32 104.32 346.64 105 348 C105 346.68 105 345.36 105 344 C104.34 344 103.68 344 103 344 Z M378 344 C379 346 379 346 379 346 Z M424 348 C425 350 425 350 425 350 Z M67 349 C68 352 68 352 68 352 Z M105 349 C106 351 106 351 106 351 Z M136 350 C137 352 137 352 137 352 Z M364 351 C364 351.33 364 351.66 364 352 C366.97 352 369.94 352 373 352 C373 351.67 373 351.34 373 351 C370.03 351 367.06 351 364 351 Z M426 351 C427 353 427 353 427 353 Z M137 352 C138 354 138 354 138 354 Z M88 353 C88.66 354.32 89.32 355.64 90 357 C90.33 356.01 90.66 355.02 91 354 C90.01 353.67 89.02 353.34 88 353 Z M427 353 C428 355 428 355 428 355 Z M138 355 C138 358.3 138 361.6 138 365 C138.33 365 138.66 365 139 365 C139 361.7 139 358.4 139 355 C138.67 355 138.34 355 138 355 Z M383 355 C383.33 355.99 383.66 356.98 384 358 C384.66 357.67 385.32 357.34 386 357 C385.01 356.34 384.02 355.68 383 355 Z M72 356 C72 356.33 72 356.66 72 357 C74.64 357 77.28 357 80 357 C80 356.67 80 356.34 80 356 C77.36 356 74.72 356 72 356 Z M428 356 C429 360 429 360 429 360 Z M120 357 C121 359 121 359 121 359 Z M387 359 C387.66 359.66 388.32 360.32 389 361 C389 360.34 389 359.68 389 359 C388.34 359 387.68 359 387 359 Z M244 360 C244 360.33 244 360.66 244 361 C252.25 361 260.5 361 269 361 C269 360.67 269 360.34 269 360 C260.75 360 252.5 360 244 360 Z M390 360 C390 360.99 390 361.98 390 363 C391.32 363 392.64 363 394 363 C393.67 362.01 393.34 361.02 393 360 C392.01 360 391.02 360 390 360 Z M122 361 C123 364 123 364 123 364 Z M152 363 C156 364 156 364 156 364 Z M351 363 C352 365 352 365 352 365 Z M412 364 C412 365.65 412 367.3 412 369 C412.33 369 412.66 369 413 369 C413 367.35 413 365.7 413 364 C412.67 364 412.34 364 412 364 Z M428 364 C429 368 429 368 429 368 Z M83 367 C84 369 84 369 84 369 Z M137 367 C138 369 138 369 138 369 Z M350 367 C350 369.64 350 372.28 350 375 C350.33 375 350.66 375 351 375 C351 372.36 351 369.72 351 367 C350.67 367 350.34 367 350 367 Z M157 368 C158 370 158 370 158 370 Z M365 368 C366 370 366 370 366 370 Z M427 369 C428 371 428 371 428 371 Z M82 370 C83 372 83 372 83 372 Z M136 370 C137 372 137 372 137 372 Z M364 371 C364 373.64 364 376.28 364 379 C364.33 379 364.66 379 365 379 C365 376.36 365 373.72 365 371 C364.67 371 364.34 371 364 371 Z M426 371 C427 373 427 373 427 373 Z M135 372 C136 374 136 374 136 374 Z M398 372 C399 374 399 374 399 374 Z M96 373 C97 377 97 377 97 377 Z M425 373 C426 375 426 375 426 375 Z M157 374 C158 377 158 377 158 377 Z M412 374 C413 376 413 376 413 376 Z M106 376 C107 378 107 378 107 378 Z M351 376 C352 378 352 378 352 378 Z M156 377 C157 379 157 379 157 379 Z M333 377 C337 378 337 378 337 378 Z M82 378 C83 380 83 380 83 380 Z M99 378 C99 378.33 99 378.66 99 379 C100.98 379 102.96 379 105 379 C105 378.67 105 378.34 105 378 C103.02 378 101.04 378 99 378 Z M168 378 C172 379 172 379 172 379 Z M401 379 C402 381 402 381 402 381 Z M179 380 C179 380.99 179 381.98 179 383 C179.66 382.67 180.32 382.34 181 382 C180.34 381.34 179.68 380.68 179 380 Z M83 381 C84 383 84 383 84 383 Z M154 382 C155 384 155 384 155 384 Z M402 382 C403 386 403 386 403 386 Z M127 383 C128 385 128 385 128 385 Z M160 385 C161 387 161 387 161 387 Z M384 386 C384.99 386.495 384.99 386.495 386 387 C386.33 387.66 386.66 388.32 387 389 C387 388.01 387 387.02 387 386 C386.01 386 385.02 386 384 386 Z M184 387 C184 387.33 184 387.66 184 388 C185.65 388 187.3 388 189 388 C189 387.67 189 387.34 189 387 C187.35 387 185.7 387 184 387 Z M225 387 C225 387.33 225 387.66 225 388 C227.64 388 230.28 388 233 388 C233 387.67 233 387.34 233 387 C230.36 387 227.72 387 225 387 Z M265 387 C269 388 269 388 269 388 Z M175 388 C176 391 176 391 176 391 Z M243 388 C243 388.33 243 388.66 243 389 C245.97 389 248.94 389 252 389 C252 388.67 252 388.34 252 388 C249.03 388 246.06 388 243 388 Z M358 388 C359 390 359 390 359 390 Z M150 389 C151 391 151 391 151 391 Z M318 389 C319 391 319 391 319 391 Z M157 390 C158 392 158 392 158 392 Z M193 391 C194 393 194 393 194 393 Z M307 391 C307 391.33 307 391.66 307 392 C308.98 392 310.96 392 313 392 C313 391.67 313 391.34 313 391 C311.02 391 309.04 391 307 391 Z M148 392 C149 394 149 394 149 394 Z M156 392 C157 394 157 394 157 394 Z M174 392 C175 395 175 395 175 395 Z M179 392 C180 394 180 394 180 394 Z M317 392 C318 394 318 394 318 394 Z M99 393 C99 393.33 99 393.66 99 394 C100.98 394 102.96 394 105 394 C105 393.67 105 393.34 105 393 C103.02 393 101.04 393 99 393 Z M155 394 C156 396 156 396 156 396 Z M316 394 C317 396 317 396 317 396 Z M402 394 C403 397 403 397 403 397 Z M146 395 C147 397 147 397 147 397 Z M334 395 C335 397 335 397 335 397 Z M173 396 C174 398 174 398 174 398 Z M177 396 C178 398 178 398 178 398 Z M197 396 C197 396.33 197 396.66 197 397 C200.3 397 203.6 397 207 397 C207 396.67 207 396.34 207 396 C203.7 396 200.4 396 197 396 Z M226 397 C226 397.33 226 397.66 226 398 C228.64 398 231.28 398 234 398 C234 397.67 234 397.34 234 397 C231.36 397 228.72 397 226 397 Z M269 397 C270 399 270 399 270 399 Z M333 397 C333 398.65 333 400.3 333 402 C333.33 402 333.66 402 334 402 C334 400.35 334 398.7 334 397 C333.67 397 333.34 397 333 397 Z M401 397 C402 399 402 399 402 399 Z M172 398 C173 400 173 400 173 400 Z M242 398 C242 398.33 242 398.66 242 399 C245.3 399 248.6 399 252 399 C252 398.67 252 398.34 252 398 C248.7 398 245.4 398 242 398 Z M261 399 C261 399.33 261 399.66 261 400 C263.64 400 266.28 400 269 400 C269 399.67 269 399.34 269 399 C266.36 399 263.72 399 261 399 Z M316 400 C317 402 317 402 317 402 Z M368 400 C368 400.66 368 401.32 368 402 C368.66 401.67 369.32 401.34 370 401 C369.34 400.67 368.68 400.34 368 400 Z M171 401 C172 403 172 403 172 403 Z M175 401 C176 403 176 403 176 403 Z M170 403 C171 405 171 405 171 405 Z M317 403 C318 406 318 406 318 406 Z M334 403 C335 405 335 405 335 405 Z M174 404 C175 406 175 406 175 406 Z M367 405 C368 407 368 407 368 407 Z M218 406 C219 408 219 408 219 408 Z M173 407 C174 410 174 410 174 410 Z M289 408 C290 410 290 410 290 410 Z M193 409 C193 409.33 193 409.66 193 410 C194.98 410 196.96 410 199 410 C199 409.67 199 409.34 199 409 C197.02 409 195.04 409 193 409 Z M368 409 C369 411 369 411 369 411 Z M219 410 C219 411.98 219 413.96 219 416 C219.33 416 219.66 416 220 416 C220 414.02 220 412.04 220 410 C219.67 410 219.34 410 219 410 Z M306 410 C307 412 307 412 307 412 Z M319 410 C320 412 320 412 320 412 Z M145 411 C146 414 146 414 146 414 Z M172 411 C173 413 173 413 173 413 Z M189 412 C190 414 190 414 190 414 Z M288 412 C288 414.64 288 417.28 288 420 C288.33 420 288.66 420 289 420 C289 417.36 289 414.72 289 412 C288.67 412 288.34 412 288 412 Z M306 413 C307 415 307 415 307 415 Z M369 413 C369 416.3 369 419.6 369 423 C369.33 423 369.66 423 370 423 C370 419.7 370 416.4 370 413 C369.67 413 369.34 413 369 413 Z M143 415 C144 417 144 417 144 417 Z M188 415 C189 417 189 417 189 417 Z M264 416 C265 418 265 418 265 418 Z M218 417 C219 419 219 419 219 419 Z M141 418 C142 420 142 420 142 420 Z M221 418 C222 420 222 420 222 420 Z M265 419 C266 422 266 422 266 422 Z M104 420 C104 421.65 104 423.3 104 425 C104.33 425 104.66 425 105 425 C105 423.35 105 421.7 105 420 C104.67 420 104.34 420 104 420 Z M220 420 C221 422 221 422 221 422 Z M356 420 C357 422 357 422 357 422 Z M139 421 C140 423 140 423 140 423 Z M289 422 C290 424 290 424 290 424 Z M219 423 C220 425 220 425 220 425 Z M266 423 C267 427 267 427 267 427 Z M137 424 C138 426 138 426 138 426 Z M348 424 C349 426 349 426 349 426 Z M250 426 C250 427.65 250 429.3 250 431 C250.33 431 250.66 431 251 431 C251 429.35 251 427.7 251 426 C250.67 426 250.34 426 250 426 Z M324 426 C325 428 325 428 325 428 Z M362 426 C362 426.33 362 426.66 362 427 C363.65 427 365.3 427 367 427 C367 426.67 367 426.34 367 426 C365.35 426 363.7 426 362 426 Z M108 427 C112 428 112 428 112 428 Z M135 427 C136 429 136 429 136 429 Z M349 427 C350 429 350 429 350 429 Z M169 428 C169 429.65 169 431.3 169 433 C169.33 433 169.66 433 170 433 C170 431.35 170 429.7 170 428 C169.67 428 169.34 428 169 428 Z M288 428 C292 429 292 429 292 429 Z M282 429 C286 430 286 430 286 430 Z M322 429 C323 431 323 431 323 431 Z M275 430 C279 431 279 431 279 431 Z M269 431 C273 432 273 432 273 432 Z M349 431 C350 433 350 433 350 433 Z M132 432 C133 434 133 434 133 434 Z M243 432 C243 432.33 243 432.66 243 433 C245.64 433 248.28 433 251 433 C251 432.67 251 432.34 251 432 C248.36 432 245.72 432 243 432 Z M323 432 C324 434 324 434 324 434 Z M184 433 C185 435 185 435 185 435 Z M131 434 C132 436 132 436 132 436 Z M130 437 C131 439 131 439 131 439 Z M170 437 C171 439 171 439 171 439 Z M209 439 C210.485 439.99 210.485 439.99 212 441 C212.66 440.67 213.32 440.34 214 440 C212.35 439.67 210.7 439.34 209 439 Z M282 439 C286 440 286 440 286 440 Z M171 440 C172 442 172 442 172 442 Z M276 440 C280 441 280 441 280 441 Z M270 441 C274 442 274 442 274 442 Z M323 441 C324 443 324 443 324 443 Z M130 442 C131 444 131 444 131 444 Z M220 442 C220 442.33 220 442.66 220 443 C222.97 443 225.94 443 229 443 C229 442.67 229 442.34 229 442 C226.03 442 223.06 442 220 442 Z M230 442 C230 442.33 230 442.66 230 443 C231.65 443 233.3 443 235 443 C235 442.67 235 442.34 235 442 C233.35 442 231.7 442 230 442 Z M240 442 C240 442.33 240 442.66 240 443 C242.64 443 245.28 443 248 443 C248 442.67 248 442.34 248 442 C245.36 442 242.72 442 240 442 Z M207 443 C208 445 208 445 208 445 Z M322 444 C323 446 323 446 323 446 Z M248 445 C249 447 249 447 249 447 Z M265 446 C266 448 266 448 266 448 Z M219 448 C220 450 220 450 220 450 Z M247 448 C248 450 248 450 248 450 Z M320 448 C321 450 321 450 321 450 Z M232 449 C232 453.29 232 457.58 232 462 C232.33 462 232.66 462 233 462 C233 457.71 233 453.42 233 449 C232.67 449 232.34 449 232 449 Z M264 449 C265 451 265 451 265 451 Z M218 450 C219 452 219 452 219 452 Z M246 451 C247 453 247 453 247 453 Z M186 452 C186 452.33 186 452.66 186 453 C189.63 453 193.26 453 197 453 C197 452.67 197 452.34 197 452 C193.37 452 189.74 452 186 452 Z M263 452 C264 454 264 454 264 454 Z M217 453 C218 455 218 455 218 455 Z M262 455 C263 457 263 457 263 457 Z M261 457 C262 459 262 459 262 459 Z M302 458 C302 458.33 302 458.66 302 459 C303.65 459 305.3 459 307 459 C307 458.67 307 458.34 307 458 C305.35 458 303.7 458 302 458 Z M216 459 C216 461.31 216 463.62 216 466 C216.33 466 216.66 466 217 466 C217 463.69 217 461.38 217 459 C216.67 459 216.34 459 216 459 Z M260 459 C261 461 261 461 261 461 Z M259 461 C260 463 260 463 260 463 Z M217 467 C218 469 218 469 218 469 Z M236 479 C240 480 240 480 240 480 Z " fill="#000000" transform="translate(0,0)"/>
</svg>
